<svg xmlns="http://www.w3.org/2000/svg" viewBox="0 0 160 160" role="img" aria-labelledby="title desc">
  <title id="title">TSA Logo</title>
  <desc id="desc">Local demo logo for the timestamp certification platform.</desc>
  <defs>
    <linearGradient id="ring" x1="24" y1="20" x2="136" y2="142" gradientUnits="userSpaceOnUse">
      <stop offset="0" stop-color="#6d5dfc"/>
      <stop offset="0.48" stop-color="#12b6cb"/>
      <stop offset="1" stop-color="#33c275"/>
    </linearGradient>
  </defs>
  <rect width="160" height="160" rx="80" fill="#fff"/>
  <circle cx="80" cy="80" r="68" fill="none" stroke="url(#ring)" stroke-width="10"/>
  <circle cx="80" cy="80" r="47" fill="#101828"/>
  <path d="M80 42c18 0 33 11 39 27h-13c-5-9-14-15-26-15-16 0-28 12-28 27 0 16 12 28 28 28 11 0 21-6 26-15h13c-6 16-21 27-39 27-23 0-40-17-40-40s17-39 40-39Z" fill="#fff"/>
  <path d="M80 60a20 20 0 1 1 0 40 20 20 0 0 1 0-40Zm0 10a10 10 0 1 0 0 20 10 10 0 0 0 0-20Z" fill="#35d0ba"/>
  <text x="80" y="137" text-anchor="middle" font-family="Arial, Helvetica, sans-serif" font-size="16" font-weight="700" fill="#101828">TSA</text>
</svg>
